# xmcd
#
# Track frame offsets:
#	150
#	10052
#	23540
#	36945
#	55262
#	67640
#	80677
#	100265
#	116417
#	131025
#	142905
#
# Disc length: 2083 seconds
#
# Revision: 1
# Processed by: cddbd v1.5.2PL0 Copyright (c) Steve Scherf et al.
# Submitted via: audiograbber 1.83.01
#
DISCID=8308210b
DTITLE=Dave Evans - Look At Me Now Dave Evans
DYEAR=1997
DGENRE=Country
TTITLE0=Buffalo Chips
TTITLE1=It Ain´t Half As Bad As It Seems
TTITLE2=Everything´s Gonna Be Alright
TTITLE3=Hey Momma Just Look At Me Now
TTITLE4=My Homes Acros The Bluebridge
TTITLE5=Next Sunday Darling I´d My Birthday
TTITLE6=Here´s Mud In Your Eye
TTITLE7=West Virginia
TTITLE8=I Still Miss Someone
TTITLE9=Doggin The Blues
TTITLE10=Old Crossroads
EXTD=
EXTT0=
EXTT1=
EXTT2=
EXTT3=
EXTT4=
EXTT5=
EXTT6=
EXTT7=
EXTT8=
EXTT9=
EXTT10=
PLAYORDER=
